<svg width="14" height="16" viewBox="0 0 14 16" fill="none" xmlns="http://www.w3.org/2000/svg">
<path d="M4.33594 8.8125H3.16406C2.95898 8.8125 2.8125 8.66602 2.8125 8.46094V7.28906C2.8125 7.11328 2.95898 6.9375 3.16406 6.9375H4.33594C4.51172 6.9375 4.6875 7.11328 4.6875 7.28906V8.46094C4.6875 8.66602 4.51172 8.8125 4.33594 8.8125ZM7.5 8.46094C7.5 8.66602 7.32422 8.8125 7.14844 8.8125H5.97656C5.77148 8.8125 5.625 8.66602 5.625 8.46094V7.28906C5.625 7.11328 5.77148 6.9375 5.97656 6.9375H7.14844C7.32422 6.9375 7.5 7.11328 7.5 7.28906V8.46094ZM10.3125 8.46094C10.3125 8.66602 10.1367 8.8125 9.96094 8.8125H8.78906C8.58398 8.8125 8.4375 8.66602 8.4375 8.46094V7.28906C8.4375 7.11328 8.58398 6.9375 8.78906 6.9375H9.96094C10.1367 6.9375 10.3125 7.11328 10.3125 7.28906V8.46094ZM7.5 11.2734C7.5 11.4785 7.32422 11.625 7.14844 11.625H5.97656C5.77148 11.625 5.625 11.4785 5.625 11.2734V10.1016C5.625 9.92578 5.77148 9.75 5.97656 9.75H7.14844C7.32422 9.75 7.5 9.92578 7.5 10.1016V11.2734ZM4.6875 11.2734C4.6875 11.4785 4.51172 11.625 4.33594 11.625H3.16406C2.95898 11.625 2.8125 11.4785 2.8125 11.2734V10.1016C2.8125 9.92578 2.95898 9.75 3.16406 9.75H4.33594C4.51172 9.75 4.6875 9.92578 4.6875 10.1016V11.2734ZM10.3125 11.2734C10.3125 11.4785 10.1367 11.625 9.96094 11.625H8.78906C8.58398 11.625 8.4375 11.4785 8.4375 11.2734V10.1016C8.4375 9.92578 8.58398 9.75 8.78906 9.75H9.96094C10.1367 9.75 10.3125 9.92578 10.3125 10.1016V11.2734ZM13.125 3.65625V13.9688C13.125 14.7598 12.4805 15.375 11.7188 15.375H1.40625C0.615234 15.375 0 14.7598 0 13.9688V3.65625C0 2.89453 0.615234 2.25 1.40625 2.25H2.8125V0.726562C2.8125 0.550781 2.95898 0.375 3.16406 0.375H4.33594C4.51172 0.375 4.6875 0.550781 4.6875 0.726562V2.25H8.4375V0.726562C8.4375 0.550781 8.58398 0.375 8.78906 0.375H9.96094C10.1367 0.375 10.3125 0.550781 10.3125 0.726562V2.25H11.7188C12.4805 2.25 13.125 2.89453 13.125 3.65625ZM11.7188 13.793V5.0625H1.40625V13.793C1.40625 13.9102 1.46484 13.9688 1.58203 13.9688H11.543C11.6309 13.9688 11.7188 13.9102 11.7188 13.793Z" fill="url(#paint0_linear_28_23)"/>
<defs>
<linearGradient id="paint0_linear_28_23" x1="12.4087" y1="13.6905" x2="-2.11656" y2="10.3985" gradientUnits="userSpaceOnUse">
<stop offset="0.085" stop-color="#4911B9"/>
<stop offset="1" stop-color="#FC3235"/>
</linearGradient>
</defs>
</svg>
