<svg width="189" height="71" viewBox="0 0 189 71" fill="none" xmlns="http://www.w3.org/2000/svg">
<path d="M46.1333 38.812C46.6646 38.2697 47.2937 37.9986 48.0206 37.9986H50.7047C51.4317 37.9986 52.0608 37.7274 52.592 37.1851C53.1232 36.6428 53.3888 36.0006 53.3888 35.2585C53.3888 34.5164 53.1232 33.8742 52.592 33.3318C52.0608 32.7895 51.4317 32.5184 50.7047 32.5184H48.0206C46.9022 32.5184 45.8537 32.7325 44.8752 33.1606C43.8966 33.5887 43.0438 34.1739 42.3169 34.916C41.5899 35.6581 41.0168 36.5286 40.5974 37.5276C40.178 38.5266 39.9683 39.5969 39.9683 40.7386V59.9192C39.9683 60.6613 40.2339 61.3035 40.7651 61.8458C41.2964 62.3882 41.9254 62.6593 42.6524 62.6593C43.3793 62.6593 44.0084 62.3882 44.5396 61.8458C45.0709 61.3035 45.3365 60.6613 45.3365 59.9192V46.2188H50.7047C51.4317 46.2188 52.0608 45.9477 52.592 45.4053C53.1232 44.863 53.3888 44.2208 53.3888 43.4787C53.3888 42.7366 53.1232 42.0944 52.592 41.5521C52.0608 41.0098 51.4317 40.7386 50.7047 40.7386H45.3365C45.3365 39.9965 45.6021 39.3543 46.1333 38.812Z" fill="white"/>
<path d="M13.1449 59.9192C13.1449 60.6613 12.8792 61.3035 12.348 61.8458C11.8168 62.3882 11.1877 62.6593 10.4607 62.6593C9.7338 62.6593 9.10471 62.3882 8.57348 61.8458C8.04225 61.3035 7.77664 60.6613 7.77664 59.9192V43.4787C7.77664 42.7366 8.04225 42.0944 8.57348 41.5521C9.10471 41.0098 9.7338 40.7386 10.4607 40.7386C11.1877 40.7386 11.8168 41.0098 12.348 41.5521C12.8792 42.0944 13.1449 42.7366 13.1449 43.4787V59.9192Z" fill="white"/>
<path d="M37.3022 59.9192C37.3022 60.6613 37.0366 61.3035 36.5053 61.8458C35.9741 62.3882 35.345 62.6593 34.6181 62.6593C33.8911 62.6593 33.262 62.3882 32.7308 61.8458C32.1996 61.3035 31.934 60.6613 31.934 59.9192V51.699C31.934 50.9283 31.7942 50.2148 31.5146 49.5583C31.235 48.9018 30.8435 48.331 30.3403 47.8457C29.865 47.332 29.3058 46.9324 28.6627 46.6469C28.0196 46.3615 27.3206 46.2188 26.5657 46.2188C25.8108 46.2188 25.1118 46.3615 24.4688 46.6469C23.8257 46.9324 23.2525 47.332 22.7493 47.8457C22.274 48.331 21.8965 48.9018 21.6169 49.5583C21.3373 50.2148 21.1975 50.9283 21.1975 51.699V59.9192C21.1975 60.6613 20.9319 61.3035 20.4007 61.8458C19.8694 62.3882 19.2404 62.6593 18.5134 62.6593C17.7865 62.6593 17.1574 62.3882 16.6261 61.8458C16.0949 61.3035 15.8293 60.6613 15.8293 59.9192V51.699C15.8293 50.1862 16.1089 48.7734 16.6681 47.4604C17.2273 46.1189 17.9962 44.9487 18.9747 43.9497C19.9533 42.9507 21.0857 42.1658 22.3718 41.5949C23.6859 41.0241 25.0839 40.7386 26.5657 40.7386C28.0476 40.7386 29.4316 41.0241 30.7177 41.5949C32.0318 42.1658 33.1782 42.9507 34.1567 43.9497C35.1353 44.9487 35.9042 46.1189 36.4634 47.4604C37.0226 48.7734 37.3022 50.1862 37.3022 51.699V59.9192Z" fill="white"/>
<path d="M60.777 59.9192C60.777 60.6613 60.5114 61.3035 59.9802 61.8458C59.4489 62.3882 58.8199 62.6593 58.0929 62.6593C57.366 62.6593 56.7369 62.3882 56.2056 61.8458C55.6744 61.3035 55.4088 60.6613 55.4088 59.9192V35.2585C55.4088 34.5164 55.6744 33.8742 56.2056 33.3318C56.7369 32.7895 57.366 32.5184 58.0929 32.5184C58.8199 32.5184 59.4489 32.7895 59.9802 33.3318C60.5114 33.8742 60.777 34.5164 60.777 35.2585V59.9192Z" fill="white"/>
<path d="M84.0956 55.9804C84.6547 54.6389 84.9343 53.2117 84.9343 51.699V43.4787C84.9343 42.7366 84.6687 42.0944 84.1375 41.5521C83.6063 41.0098 82.9772 40.7386 82.2502 40.7386C81.5233 40.7386 80.8942 41.0098 80.363 41.5521C79.8317 42.0944 79.5661 42.7366 79.5661 43.4787V51.699C79.5661 52.4696 79.4263 53.1832 79.1467 53.8397C78.8671 54.4961 78.4757 55.0813 77.9724 55.595C77.4971 56.0802 76.9379 56.4656 76.2949 56.751C75.6518 57.0364 74.9528 57.1791 74.1979 57.1791C73.443 57.1791 72.744 57.0364 72.1009 56.751C71.4579 56.4656 70.8847 56.0802 70.3814 55.595C69.9061 55.0813 69.5287 54.4961 69.2491 53.8397C68.9695 53.1832 68.8297 52.4696 68.8297 51.699V43.4787C68.8297 42.7366 68.5641 42.0944 68.0328 41.5521C67.5016 41.0098 66.8725 40.7386 66.1456 40.7386C65.4186 40.7386 64.7895 41.0098 64.2583 41.5521C63.7271 42.0944 63.4615 42.7366 63.4615 43.4787V51.699C63.4615 53.2117 63.7411 54.6389 64.3002 55.9804C64.8594 57.2933 65.6283 58.4493 66.6069 59.4483C67.5855 60.4473 68.7178 61.2322 70.004 61.803C71.3181 62.3739 72.716 62.6593 74.1979 62.6593C75.6797 62.6593 77.0638 62.3739 78.3499 61.803C79.664 61.2322 80.8103 60.4473 81.7889 59.4483C82.7675 58.4493 83.5364 57.2933 84.0956 55.9804Z" fill="white"/>
<path d="M99.5978 57.1791C99.9892 57.1791 100.311 57.0507 100.562 56.7938C100.814 56.5369 100.94 56.2087 100.94 55.8091C100.94 55.4095 100.814 55.0813 100.562 54.8244C100.311 54.5675 99.9892 54.4391 99.5978 54.4391H94.2296C93.3069 54.4391 92.4402 54.2678 91.6293 53.9253C90.8185 53.5542 90.1056 53.0547 89.4904 52.4268C88.8753 51.7989 88.386 51.071 88.0226 50.2433C87.6871 49.4156 87.5193 48.5308 87.5193 47.5888C87.5193 46.6469 87.6871 45.7621 88.0226 44.9344C88.386 44.1067 88.8753 43.3788 89.4904 42.7509C90.1056 42.1229 90.8185 41.6377 91.6293 41.2952C92.4402 40.9242 93.3069 40.7386 94.2296 40.7386H102.282C103.009 40.7386 103.638 41.0098 104.169 41.5521C104.7 42.0944 104.966 42.7366 104.966 43.4787C104.966 44.2208 104.7 44.863 104.169 45.4053C103.638 45.9477 103.009 46.2188 102.282 46.2188H94.2296C93.8381 46.2188 93.5166 46.3472 93.265 46.6041C93.0133 46.861 92.8875 47.1893 92.8875 47.5888C92.8875 47.9884 93.0133 48.3167 93.265 48.5736C93.5166 48.8304 93.8381 48.9589 94.2296 48.9589H99.5978C100.52 48.9589 101.387 49.1444 102.198 49.5155C103.009 49.858 103.722 50.3432 104.337 50.9711C104.952 51.5991 105.427 52.3269 105.763 53.1546C106.126 53.9824 106.308 54.8672 106.308 55.8091C106.308 56.751 106.126 57.6358 105.763 58.4636C105.427 59.2913 104.952 60.0191 104.337 60.6471C103.722 61.275 103.009 61.7745 102.198 62.1455C101.387 62.4881 100.52 62.6593 99.5978 62.6593H90.2034C89.4765 62.6593 88.8474 62.3882 88.3161 61.8458C87.7849 61.3035 87.5193 60.6613 87.5193 59.9192C87.5193 59.1771 87.7849 58.5349 88.3161 57.9926C88.8474 57.4503 89.4765 57.1791 90.2034 57.1791H99.5978Z" fill="white"/>
<path d="M120.978 55.9804C120.195 56.7795 119.244 57.1791 118.126 57.1791C117.008 57.1791 116.057 56.7795 115.274 55.9804C114.491 55.1812 114.1 54.2107 114.1 53.069V43.4787C114.1 42.7366 113.834 42.0944 113.303 41.5521C112.772 41.0098 112.143 40.7386 111.416 40.7386C110.689 40.7386 110.06 41.0098 109.528 41.5521C108.997 42.0944 108.732 42.7366 108.732 43.4787V53.069C108.732 54.4105 108.969 55.6664 109.445 56.8366C109.948 57.9783 110.619 58.9916 111.458 59.8764C112.324 60.7327 113.317 61.4177 114.435 61.9315C115.582 62.4167 116.812 62.6593 118.126 62.6593C119.468 62.6593 120.698 62.4167 121.817 61.9315C122.963 61.4177 123.97 60.7041 124.836 59.7908C125.675 60.7041 126.668 61.4177 127.814 61.9315C128.96 62.4167 130.204 62.6593 131.547 62.6593C132.833 62.6593 134.049 62.4167 135.195 61.9315C136.342 61.4177 137.334 60.7327 138.173 59.8764C139.04 58.9916 139.711 57.9783 140.186 56.8366C140.689 55.6664 140.941 54.4105 140.941 53.069V43.4787C140.941 42.7366 140.675 42.0944 140.144 41.5521C139.613 41.0098 138.984 40.7386 138.257 40.7386C137.53 40.7386 136.901 41.0098 136.37 41.5521C135.838 42.0944 135.573 42.7366 135.573 43.4787V53.069C135.573 54.2107 135.181 55.1812 134.398 55.9804C133.616 56.7795 132.665 57.1791 131.547 57.1791C130.428 57.1791 129.478 56.7795 128.695 55.9804C127.912 55.1812 127.52 54.2107 127.52 53.069V46.2188C127.52 45.4767 127.255 44.8345 126.724 44.2922C126.192 43.7499 125.563 43.4787 124.836 43.4787C124.109 43.4787 123.48 43.7499 122.949 44.2922C122.418 44.8345 122.152 45.4767 122.152 46.2188V53.069C122.152 54.2107 121.761 55.1812 120.978 55.9804Z" fill="white"/>
<path fill-rule="evenodd" clip-rule="evenodd" d="M143.461 51.699C143.461 50.1862 143.741 48.7734 144.3 47.4604C144.859 46.1189 145.628 44.9487 146.607 43.9497C147.585 42.9507 148.718 42.1658 150.004 41.5949C151.318 41.0241 152.716 40.7386 154.198 40.7386C155.68 40.7386 157.064 41.0241 158.35 41.5949C159.664 42.1658 160.81 42.9507 161.789 43.9497C162.767 44.9487 163.536 46.1189 164.095 47.4604C164.655 48.7734 164.934 50.1862 164.934 51.699V59.9192C164.934 60.6613 164.669 61.3035 164.137 61.8458C163.606 62.3882 162.977 62.6593 162.25 62.6593C161.691 62.6593 161.188 62.5166 160.74 62.2312C160.321 61.9172 159.999 61.5176 159.776 61.0324C158.965 61.5462 158.084 61.9457 157.134 62.2312C156.211 62.5166 155.232 62.6593 154.198 62.6593C152.716 62.6593 151.318 62.3739 150.004 61.803C148.718 61.2322 147.585 60.4473 146.607 59.4483C145.628 58.4493 144.859 57.2933 144.3 55.9804C143.741 54.6389 143.461 53.2117 143.461 51.699ZM158.249 52.0292C158.3 51.9373 158.327 51.8337 158.327 51.7283C158.327 51.6229 158.3 51.5193 158.249 51.4275C158.199 51.3356 158.125 51.2587 158.036 51.2042L152.531 47.785C152.438 47.7273 152.332 47.6958 152.223 47.6937C152.114 47.6917 152.007 47.7192 151.912 47.7733C151.818 47.8267 151.74 47.9045 151.686 47.9987C151.631 48.0929 151.602 48.2002 151.602 48.3095V55.1472C151.602 55.2565 151.631 55.3637 151.686 55.4579C151.74 55.5522 151.818 55.63 151.912 55.6833C152.007 55.7375 152.114 55.7649 152.223 55.7629C152.332 55.7609 152.438 55.7294 152.531 55.6716L158.036 52.2524C158.125 52.1979 158.199 52.121 158.249 52.0292Z" fill="white"/>
<path d="M181.577 64.3639C180.626 65.1345 179.522 65.5198 178.264 65.5198C177.565 65.5198 176.894 65.3914 176.25 65.1345C175.607 64.8776 175.006 64.478 174.447 63.9357C173.916 63.3934 173.287 63.1223 172.56 63.1223C171.833 63.1223 171.204 63.3934 170.673 63.9357C170.141 64.478 169.876 65.1202 169.876 65.8623C169.876 66.6044 170.141 67.2467 170.673 67.789C171.735 68.8736 172.923 69.6728 174.237 70.1865C175.551 70.7288 176.894 71 178.264 71C179.745 71 181.129 70.7146 182.416 70.1437C183.73 69.5729 184.876 68.7879 185.855 67.789C186.833 66.79 187.602 65.6197 188.161 64.2782C188.72 62.9653 189 61.5524 189 60.0397V43.5992C189 42.8571 188.734 42.2148 188.203 41.6725C187.672 41.1302 187.043 40.8591 186.316 40.8591C185.589 40.8591 184.96 41.1302 184.429 41.6725C183.897 42.2148 183.632 42.8571 183.632 43.5992V51.8194C183.632 52.5901 183.492 53.3036 183.212 53.9601C182.933 54.6166 182.541 55.2017 182.038 55.7155C181.563 56.2007 181.004 56.586 180.36 56.8714C179.717 57.1569 179.018 57.2996 178.264 57.2996C177.509 57.2996 176.81 57.1569 176.167 56.8714C175.524 56.586 174.95 56.2007 174.447 55.7155C173.972 55.2017 173.594 54.6166 173.315 53.9601C173.035 53.3036 172.895 52.5901 172.895 51.8194V43.5992C172.895 42.8571 172.63 42.2148 172.098 41.6725C171.567 41.1302 170.938 40.8591 170.211 40.8591C169.484 40.8591 168.855 41.1302 168.324 41.6725C167.793 42.2148 167.527 42.8571 167.527 43.5992V51.8194C167.527 53.3322 167.807 54.7593 168.366 56.1008C168.925 57.4137 169.694 58.5697 170.673 59.5687C171.651 60.5677 172.783 61.3526 174.07 61.9235C175.384 62.4943 176.782 62.7798 178.264 62.7798C179.214 62.7798 180.123 62.6656 180.99 62.4372C181.856 62.1804 182.681 61.8378 183.464 61.4097C183.156 62.6085 182.527 63.5932 181.577 64.3639Z" fill="white"/>
<path d="M5.10931 19.4321H15.7243V22.6679C15.7243 25.6603 13.3481 28.0861 10.4168 28.0861C7.48556 28.0861 5.10931 25.6603 5.10931 22.6679V19.4321Z" fill="white"/>
<path d="M10.4076 28.4795C12.0348 28.4773 13.5947 27.8156 14.7453 26.6395C15.8959 25.4634 16.5433 23.8689 16.5454 22.2056V13.4768C16.5454 11.8129 15.8987 10.2171 14.7477 9.04054C13.5966 7.86396 12.0354 7.20297 10.4076 7.20297C8.77974 7.20297 7.21856 7.86396 6.0675 9.04054C4.91644 10.2171 4.26978 11.8129 4.26978 13.4768V22.2056C4.2719 23.8689 4.91924 25.4634 6.06984 26.6395C7.22045 27.8156 8.78039 28.4773 10.4076 28.4795ZM5.87095 13.4768C5.87095 12.247 6.34891 11.0675 7.1997 10.1978C8.05048 9.32818 9.2044 8.83962 10.4076 8.83962C11.6108 8.83962 12.7647 9.32818 13.6155 10.1978C14.4663 11.0675 14.9442 12.247 14.9442 13.4768V22.2056C14.9442 23.4355 14.4663 24.615 13.6155 25.4846C12.7647 26.3543 11.6108 26.8428 10.4076 26.8428C9.2044 26.8428 8.05048 26.3543 7.1997 25.4846C6.34891 24.615 5.87095 23.4355 5.87095 22.2056V13.4768ZM11.2082 32.8098V37.4811C11.2082 37.6981 11.1238 37.9063 10.9737 38.0597C10.8235 38.2132 10.6199 38.2994 10.4076 38.2994C10.1953 38.2994 9.99163 38.2132 9.84149 38.0597C9.69135 37.9063 9.607 37.6981 9.607 37.4811V32.8098C6.99455 32.6009 4.55502 31.3935 2.77455 29.4283C0.994085 27.463 0.00342857 24.8842 0 22.2056C0 21.9886 0.0843469 21.7805 0.234485 21.627C0.384624 21.4735 0.588256 21.3873 0.800584 21.3873C1.01291 21.3873 1.21654 21.4735 1.36668 21.627C1.51682 21.7805 1.60117 21.9886 1.60117 22.2056C1.60117 24.593 2.52898 26.8826 4.18051 28.5707C5.83203 30.2589 8.07198 31.2073 10.4076 31.2073C12.7432 31.2073 14.9831 30.2589 16.6347 28.5707C18.2862 26.8826 19.214 24.593 19.214 22.2056C19.214 21.9886 19.2984 21.7805 19.4485 21.627C19.5986 21.4735 19.8023 21.3873 20.0146 21.3873C20.2269 21.3873 20.4306 21.4735 20.5807 21.627C20.7308 21.7805 20.8152 21.9886 20.8152 22.2056C20.8117 24.8842 19.8211 27.463 18.0406 29.4283C16.2602 31.3935 13.8206 32.6009 11.2082 32.8098Z" fill="white"/>
<path d="M5.70382 1.93654L8.25331 5.24894C8.33467 5.3552 8.37466 5.48244 8.37466 5.60688C8.37465 5.78026 8.29882 5.95224 8.15404 6.0669C7.90309 6.26545 7.54183 6.21931 7.34741 5.96623L4.79791 2.65383C4.60211 2.40075 4.64761 2.03302 4.89719 1.83587C5.14814 1.63732 5.5094 1.68346 5.70382 1.93654ZM12.4726 5.25034L15.0221 1.93794C15.2179 1.68346 15.5792 1.63872 15.8287 1.83727C15.9735 1.95192 16.0494 2.1239 16.0494 2.29728C16.0494 2.42312 16.0094 2.54897 15.928 2.65523L13.3785 5.96763C13.1827 6.2221 12.8215 6.26685 12.5719 6.0683C12.3223 5.86975 12.2768 5.50341 12.4726 5.25034ZM10.294 5.36919C9.97688 5.36919 9.71904 5.10772 9.71904 4.78612L9.71904 0.58306C9.71904 0.261468 9.97688 -1.41516e-08 10.294 0C10.6112 1.41516e-08 10.869 0.261468 10.869 0.58306V4.78612C10.869 5.10772 10.6112 5.36919 10.294 5.36919Z" fill="white"/>
<path fill-rule="evenodd" clip-rule="evenodd" d="M5.81387 17.887H8.2312C8.39141 17.887 8.52129 17.7138 8.52129 17.5002C8.52129 17.2865 8.39141 17.1133 8.2312 17.1133H5.81387V17.887Z" fill="white"/>
<path fill-rule="evenodd" clip-rule="evenodd" d="M5.81387 16.1102H8.2312C8.39141 16.1102 8.52129 15.937 8.52129 15.7234C8.52129 15.5097 8.39141 15.3365 8.2312 15.3365H5.81387V16.1102Z" fill="white"/>
<path fill-rule="evenodd" clip-rule="evenodd" d="M5.81387 14.3335H8.2312C8.39141 14.3335 8.52129 14.1603 8.52129 13.9466C8.52129 13.7329 8.39141 13.5597 8.2312 13.5597H5.81387V14.3335Z" fill="white"/>
<path fill-rule="evenodd" clip-rule="evenodd" d="M14.9505 17.887H12.5331C12.3729 17.887 12.2431 17.7138 12.2431 17.5002C12.2431 17.2865 12.3729 17.1133 12.5331 17.1133H14.9505V17.887Z" fill="white"/>
<path fill-rule="evenodd" clip-rule="evenodd" d="M14.9505 16.1102H12.5331C12.3729 16.1102 12.2431 15.937 12.2431 15.7234C12.2431 15.5097 12.3729 15.3365 12.5331 15.3365H14.9505V16.1102Z" fill="white"/>
<path fill-rule="evenodd" clip-rule="evenodd" d="M14.9505 14.3335H12.5331C12.3729 14.3335 12.2431 14.1603 12.2431 13.9466C12.2431 13.7329 12.3729 13.5597 12.5331 13.5597H14.9505V14.3335Z" fill="white"/>
</svg>
